<svg width="30" height="30" viewBox="0 0 30 30" fill="none" xmlns="http://www.w3.org/2000/svg"><path fill-rule="evenodd" clip-rule="evenodd" d="M0 13.2114C0 5.92682 5.92682 0 13.2114 0C20.4963 0 26.4227 5.92682 26.4227 13.2114C26.4227 16.4159 25.276 19.3576 23.3713 21.6476L29.642 27.9183C30.1184 28.3943 30.1184 29.1667 29.642 29.6427C29.4037 29.8809 29.0915 30 28.7798 30C28.4676 30 28.1557 29.8809 27.9176 29.6427L21.6468 23.3719C19.3569 25.2762 16.4155 26.4227 13.2114 26.4227C5.92682 26.4227 0 20.4963 0 13.2114ZM2.43902 13.2114C2.43902 19.1513 7.27154 23.9838 13.2114 23.9838C19.1512 23.9838 23.9837 19.1512 23.9837 13.2114C23.9837 7.27154 19.1512 2.43902 13.2114 2.43902C7.27154 2.43902 2.43902 7.2716 2.43902 13.2114Z" fill="white"/></svg>
